<svg width="172" height="151" viewBox="0 0 172 151" fill="none" xmlns="http://www.w3.org/2000/svg">
<path d="M160.297 127.361C156.445 130.443 150.556 139.303 145.713 133.085C145.383 132.644 145.218 132.699 144.943 133.029C142.687 136.111 137.459 138.313 135.423 133.965C134.157 129.232 138.064 124.83 139.385 120.427C133.001 124.169 129.974 131.654 124.196 136.056C122.27 137.377 119.849 135.286 120.894 133.14C117.262 136.662 109.833 140.294 109.007 132.589C104.88 137.597 94.2038 140.074 95.2494 130.443C95.6346 125.05 106.586 106.064 112.419 107.55C117.647 111.622 105.54 121.198 102.459 124.004C100.312 126.481 99.4318 130.058 98.9365 133.305C98.7714 135.121 98.7164 135.506 100.808 134.846C106.311 132.369 111.099 127.636 114.235 122.518C115.226 121.473 116.271 118.226 118.033 119.547C121.114 121.088 114.566 129.397 113.905 132.149C110.438 138.918 120.179 130.608 121.72 129.067C124.361 126.866 125.462 123.564 127.718 121.088C128.433 120.317 128.764 120.317 129.644 120.867C132.506 122.959 127.553 126.481 127.333 129.012C130.855 125.82 135.973 115.915 141.366 117.841C145.658 121.748 139.935 128.572 139.165 133.195C138.504 135.231 141.586 132.479 142.026 132.039C148.025 127.801 150.831 116.025 159.691 117.566C161.838 118.006 162.718 119.602 163.654 121.418C166.24 123.344 164.424 126.536 163.654 129.012C166.075 127.967 169.432 126.04 171.303 128.847C171.523 129.232 171.578 129.507 170.973 129.507C161.893 129.673 161.012 136.276 157.765 142.935C155.619 146.842 150.721 153.006 145.934 150.089C144.613 149.319 144.228 148.383 144.503 146.842C146.484 141.064 151.932 136.992 156.775 133.525C158.866 132.314 159.196 129.673 160.297 127.361ZM160.132 120.042C157.655 118.721 146.759 131.984 149.841 131.929C152.097 130.608 161.893 123.784 160.847 121.253C160.737 120.702 161.012 119.822 160.132 120.042ZM147.199 148.769C150.061 147.833 155.894 140.349 155.949 137.487C152.372 140.514 147.695 143.816 147.199 148.769ZM110.933 111.017C108.897 112.833 107.356 115.089 105.871 117.345C107.742 115.419 109.558 113.438 110.933 111.017Z" fill="#2E313D"/>
<path d="M53.4258 125.105C55.7922 122.243 58.929 113.713 63.0013 114.099C68.0642 116.63 63.2214 122.904 62.6711 126.921C65.1475 124.555 70.3756 115.97 73.2372 121.968C73.6775 125.49 71.4762 128.737 70.5957 132.094C74.5029 130.058 77.2545 126.426 79.4558 122.684C80.3913 121.528 81.2168 118.776 82.9778 119.107C84.0234 119.547 84.2986 120.207 84.1885 120.923C89.0313 115.089 96.3505 112.613 94.7546 123.179C93.9841 130.003 85.069 143.651 78.6853 134.736C80.2262 134.35 81.1618 136.387 82.9228 134.625C84.7388 134.35 95.3049 115.585 90.9574 118.501C84.5187 123.289 80.0611 130.443 76.0988 137.322C74.3929 140.789 72.962 144.366 72.1366 148.163C71.9715 148.879 71.6413 148.989 70.9809 148.934C64.5422 146.953 71.8064 137.872 72.962 133.965C65.0925 136.607 67.1287 128.462 68.8347 123.949C66.3032 126.041 64.5422 128.902 62.2859 131.269C55.2419 135.176 60.4699 121.033 61.1302 118.226C56.4525 123.234 54.0862 129.948 50.4541 135.671C48.1428 139.193 46.2717 135.451 47.0972 132.589C46.1066 132.975 45.4462 134.075 44.4006 134.57C40.6585 137.102 35.3754 133.635 36.9163 129.177C33.9446 131.929 30.6427 138.588 26.0751 135.176C25.0845 134.46 24.5342 133.47 24.5342 132.204C24.9194 127.526 27.6159 123.344 30.4226 119.712C31.7983 116.85 36.5311 118.171 34.3848 121.253C32.1836 124.885 29.7622 128.792 29.0468 133.03C33.5594 129.673 37.3566 124.995 40.9886 120.647C41.649 119.767 41.9242 119.712 42.9148 120.262C46.767 122.133 40.6585 129.397 40.5484 132.644C40.0531 135.836 49.2434 126.536 49.4635 125.49C50.234 124.335 50.7843 121.033 52.6554 122.023C54.1962 122.739 53.811 123.839 53.2607 125.16C53.3708 125.105 53.3708 125.105 53.4258 125.105Z" fill="#2E313D"/>
<path d="M13.8034 111.953C9.29076 114.264 4.44796 118.556 2.96211 123.509C2.63192 124.885 0.485685 122.188 1.2011 121.033C3.89765 114.539 9.78604 109.861 16.2798 107.495C24.5896 104.523 29.2672 111.787 26.0204 119.217C22.6634 127.637 16.9952 136.882 7.58476 139.193C3.07217 140.239 -1.33036 136.992 0.375622 132.149C1.42122 127.692 5.82375 125.71 7.58476 121.748C9.18068 118.226 11.1068 114.814 13.8034 111.953ZM4.11778 131.764C-0.339788 139.688 7.25458 136.277 10.7766 133.415C17.7106 128.737 35.7059 101.937 14.7389 111.512C15.7294 112.118 16.9952 112.393 16.0046 113.659C14.5738 116.3 12.7027 118.611 11.6021 121.418C13.4732 121.143 16.0046 120.262 17.1603 122.188C17.4354 122.629 17.3804 122.904 16.8301 122.904C14.4637 123.014 12.4276 123.949 10.3914 125.05C8.52031 127.692 7.91497 131.599 7.25459 134.846C7.19956 135.286 7.03446 135.396 6.64924 135.396C4.61306 135.341 4.17281 133.525 4.11778 131.764Z" fill="#2E313D"/>
<path d="M119.078 116.795C119.188 114.264 122.93 110.302 124.911 113.603C125.242 114.869 122.38 116.3 121.885 117.676C120.839 120.262 119.243 118.942 119.078 116.795Z" fill="#2E313D"/>
<path d="M3.73221 142.605C3.73221 141.834 4.99794 141.834 4.94291 142.605V148.438C4.94291 149.209 3.67718 149.209 3.73221 148.438V142.605Z" fill="#2E313D"/>
<path d="M11.3262 142.605C11.9866 139.964 15.6186 146.567 16.224 146.842C16.4441 146.347 15.6737 141.78 16.8293 141.945C18.04 141.669 17.2146 147.943 17.4347 148.383C17.4347 149.099 16.4441 149.154 16.169 148.603L12.5919 143.981V148.383C12.5919 149.154 11.3812 149.154 11.3812 148.383C11.3262 148.438 11.3262 142.605 11.3262 142.605Z" fill="#2E313D"/>
<path d="M36.1443 143.155C35.649 143.045 33.8329 143.541 33.888 142.605C33.6679 141.504 38.6207 142.22 39.116 142.055C39.8314 142.055 39.8314 143.21 39.116 143.21H37.41C37.1899 143.761 38.0153 149.319 36.8047 149.099C35.5389 149.264 36.3644 143.651 36.1443 143.155Z" fill="#2E313D"/>
<path d="M45.3907 142.605C45.3907 141.834 46.6565 141.834 46.6014 142.605V144.971H49.9583C50.1234 144.421 49.5181 141.945 50.5637 142C51.7744 141.724 50.9489 147.998 51.169 148.438C51.169 149.209 49.9033 149.209 49.9583 148.438V146.072H46.6014C46.4363 146.622 47.0417 149.099 45.9961 149.044C44.7854 149.319 45.6659 143.1 45.3907 142.605Z" fill="#2E313D"/>
<path d="M57.4987 148.383C57.7189 147.833 56.8934 141.779 58.1041 142.055H62.1764C62.8918 142.055 62.8918 143.155 62.1764 143.155H58.7094V144.971C59.2047 145.136 62.3415 144.476 62.2865 145.522C62.3966 146.567 59.2047 145.907 58.7094 146.072V147.943H62.2315C62.9469 147.943 62.9469 149.044 62.2315 149.044C61.7362 148.768 57.3887 149.539 57.4987 148.383Z" fill="#2E313D"/>
<path d="M80.8867 142.825C80.5565 142.055 81.8773 141.615 82.0974 142.44L83.6933 147.228C85.8946 140.184 86.0046 140.184 88.2059 147.228L89.8018 142.44C90.0219 141.67 91.3427 142.055 90.9575 142.825L88.8663 148.604C87.3804 151.025 86.3898 144.586 85.8946 144.036C83.253 153.336 82.9779 147.943 80.8867 142.825Z" fill="#2E313D"/>
<path d="M96.2409 145.522C96.0208 140.844 103.78 140.789 103.56 145.522C103.78 150.144 96.0758 150.199 96.2409 145.522ZM102.294 145.522C102.404 142.275 97.3966 142.275 97.5617 145.522C97.4516 148.714 102.404 148.714 102.294 145.522Z" fill="#2E313D"/>
<path d="M109.558 142.66C109.503 141.559 112.144 142.22 112.695 142.055C115.501 141.725 116.272 145.687 113.685 146.347C113.96 146.898 116.272 148.769 114.621 149.044C114.015 149.154 112.695 146.898 112.309 146.567H110.768C110.658 147.118 111.154 149.099 110.163 149.044C108.952 149.319 109.833 143.155 109.558 142.66ZM112.584 145.467C114.511 145.577 114.511 142.99 112.584 143.1H110.768V145.467H112.584Z" fill="#2E313D"/>
<path d="M121.279 142.605C121.279 141.835 122.545 141.835 122.49 142.605V147.888H125.682C126.397 147.888 126.397 148.989 125.682 148.989H121.885C120.674 149.264 121.555 143.1 121.279 142.605Z" fill="#2E313D"/>
<path d="M132.011 142.66C131.956 141.614 134.102 142.165 134.597 142.055C139.495 141.89 139.495 149.154 134.597 149.044C134.047 148.879 131.956 149.484 132.011 148.438C132.011 148.383 132.011 142.66 132.011 142.66ZM134.597 147.888C138.615 147.448 137.459 142.275 133.222 143.155V147.888H134.597Z" fill="#2E313D"/>
<path d="M80.5583 39.916L78.8524 35.6786L74.2847 32.872L72.6888 28.0842L68.0662 25.7729L63.6086 26.5983L59.8664 24.7273L56.2344 23.9018C54.9136 24.8373 50.7312 27.754 49.8507 29.0748L43.6871 31.1109C41.5409 34.3578 41.1557 34.1927 40.9906 38.21L37.8538 40.3012L36.0928 44.4286L36.9182 45.9145C45.228 47.1252 74.4498 50.427 81.714 53.839L82.8146 51.7478L81.9892 47.2902L80.0631 45.6393L80.7785 42.2824L80.5583 39.916Z" fill="#F2F1C7"/>
<path d="M51.0049 41.5669L71.0914 45.144L72.3572 37.8248L52.2706 34.2477L51.0049 41.5669Z" fill="#2E313D"/>
<path d="M78.0809 50.2069C77.4205 51.8028 79.5667 52.4632 80.8324 52.243C82.5384 50.6471 80.7224 48.0056 79.1265 47.0701C80.9975 45.144 82.4834 50.2619 81.9881 51.6927C81.823 52.6833 81.3828 53.1786 80.3922 52.7934C74.0636 50.9773 67.6248 49.5465 61.1311 48.3908C53.3716 46.7949 45.5021 46.1896 37.6876 45.0889C37.0272 45.0889 37.0823 44.5386 37.0823 44.0984C37.0272 41.677 38.8433 39.6958 41.3197 39.4757C40.5493 40.4663 39.1735 40.9065 38.5681 42.1172C38.293 42.7226 37.4675 43.2179 37.9077 43.9883C38.348 44.7587 39.2835 44.7037 40.054 44.7587C40.9345 44.8138 40.8795 43.9333 41.0996 43.438C47.5383 24.6722 75.3293 24.7272 78.1359 45.8043C75.9897 47.7304 72.4126 45.3091 72.0824 46.5748C72.2475 48.5559 76.7601 47.7855 78.1359 47.4003C78.1909 48.4459 78.1359 49.3264 78.0809 50.2069ZM63.8277 39.5307C64.1579 38.6502 62.9472 38.1549 62.672 39.0905C62.3968 39.8609 61.9016 40.3562 61.0761 40.1911C59.4251 40.1361 60.4157 37.9898 59.26 37.8798C56.6736 40.081 62.672 43.8232 63.8277 39.5307ZM66.4692 38.0999C66.3041 38.4301 66.2491 38.8153 66.5792 39.0905C67.4047 39.9159 67.845 37.4395 68.2852 38.9804C68.3953 39.4207 68.6705 39.7509 69.1657 39.5307C70.8167 37.9898 67.1846 35.9537 66.4692 38.0999ZM53.7569 35.6785C53.5367 36.0637 53.4267 36.449 53.8669 36.7791C54.6374 37.4946 55.1877 35.1282 55.5729 36.6691C55.683 37.0543 55.9031 37.3295 56.2883 37.2194C58.2144 35.8436 54.6374 33.5873 53.7569 35.6785ZM66.6343 42.5575C66.3591 43.7682 68.5053 44.2084 68.7255 42.9977C69.1107 41.6219 66.7994 41.0716 66.6343 42.5575ZM55.4628 40.5763C55.793 39.2556 53.8119 38.7053 53.4817 40.026C53.0415 41.4018 55.3528 41.9521 55.4628 40.5763Z" fill="#EDEAAB"/>
<path d="M67.8997 41.677C66.579 41.4569 66.0837 43.4931 67.5145 43.7132C68.8353 44.0434 69.2205 41.8971 67.8997 41.677Z" fill="#DBD695"/>
<path d="M54.2525 41.3469C55.6282 41.7871 55.9584 39.5859 54.7477 39.3657C53.427 38.9255 52.9867 41.1267 54.2525 41.3469Z" fill="#DBD695"/>
<path d="M54.528 23.7366C54.8032 23.6816 55.0233 23.6266 55.2985 23.5715C55.2434 23.5715 54.473 23.7917 54.418 23.7917L54.528 23.7366Z" fill="#1E2517"/>
<path d="M81.6585 45.6393C80.723 43.9883 82.594 41.5119 81.8786 39.2556C81.4934 36.3939 79.3472 33.6424 76.5406 32.8169C75.605 32.6518 75.1097 32.1015 75.0547 30.9458C74.5594 29.3499 73.5138 27.864 72.4132 26.6533C71.0374 25.6077 69.8817 24.8373 67.2952 24.7272C66.0845 24.5621 64.3235 25.6628 63.333 25.4977C62.1773 24.7823 60.8565 23.7367 59.4257 23.4065L59.3156 23.6816L59.3707 23.4065C56.1238 22.4709 52.4917 23.8467 50.7307 27.0386C50.2354 27.809 50.1804 27.9191 49.6301 27.9741V28.2493L49.52 27.9741C44.6222 27.864 40.2747 31.4961 40.3848 36.8892C38.5137 35.6785 38.6237 33.5323 37.8533 31.7163C34.7715 30.6156 36.4775 35.1833 37.0829 36.449C37.413 36.9993 38.4587 38.0999 38.8989 38.5402C35.652 39.971 33.1206 47.1802 38.4586 47.0151C43.7967 47.6204 49.1348 48.2808 54.4178 49.1063C53.8675 51.0324 52.932 53.0685 52.2716 55.0497C51.9414 55.7651 52.1065 55.7651 51.3911 55.4899C50.5106 54.9396 49.2999 54.9946 49.1898 55.9852C48.9697 56.3154 49.0798 57.2509 49.9052 57.416C51.8864 58.0764 53.5373 59.2871 54.0876 56.7006C54.9681 55.1047 56.1238 49.5465 57.1694 49.5465C59.7559 49.3264 56.3439 56.7557 57.1144 58.8469C56.2889 59.012 55.5735 58.2965 54.748 58.6818C54.1977 58.9569 53.9776 60.2777 54.4178 60.7179C54.8031 61.2132 55.6285 61.0481 56.1789 61.1032C58.16 61.6535 58.9855 61.3233 59.1506 58.9019C59.6458 56.0402 59.8109 53.0685 60.4163 50.2069C60.4713 50.0968 61.5719 50.3169 61.7921 50.372C68.1207 51.5276 74.5594 53.1786 80.8881 54.6645C82.8142 55.1047 83.0893 54.9396 83.5296 52.9585C84.3 50.2619 83.7497 47.5103 81.6585 45.6393ZM61.7371 27.3137C64.9289 29.2398 70.432 22.7461 73.1286 32.8719C73.2387 33.8075 74.5594 34.5229 75.605 34.798C79.3472 35.6785 80.723 41.1817 79.017 44.5937C77.6962 46.3547 75.2198 46.5198 73.3487 45.9144C72.3581 45.3091 71.2575 46.4647 71.8078 47.4553C74.2843 49.3264 77.8613 48.2808 80.1176 47.1802C81.4384 48.4459 82.2088 50.8673 81.2183 52.4632C78.5767 51.8028 75.8802 51.1424 73.1836 50.5371C61.1867 47.3452 49.7401 46.1896 37.5781 44.6487C37.1929 42.0622 39.3392 40.3012 41.7055 39.8059C42.531 39.5307 42.3659 37.8798 42.4209 37.0543C42.6411 32.5417 44.8423 30.2854 49.1348 30.1203C53.3172 30.0103 54.1427 21.3153 61.2968 26.8735L61.7371 27.3137Z" fill="#2E313D"/>
<path d="M109.504 8.54803C111.65 5.46626 115.998 10.7493 118.144 8.71313C120.565 5.30117 123.922 10.8594 126.564 11.6298C128.105 12.5103 128.215 13.776 127.004 15.0968C119.795 22.8012 112.09 30.3406 106.477 39.3107C105.927 44.7038 104.826 50.207 102.68 55.3249C99.213 61.5985 88.647 59.0121 85.3451 53.5089C84.2444 51.1976 85.9504 48.501 86.0605 46.0796C90.518 30.5607 87.9315 18.894 83.9142 3.70525C83.1438 -1.02747 91.6737 2.10933 94.4253 1.39392C97.0668 1.11876 96.9567 3.65022 98.5527 4.20053C107.248 3.15493 105.597 2.54959 107.688 10.6943C108.348 9.8688 108.954 9.20841 109.504 8.54803ZM104.276 39.3658C109.889 29.9003 117.924 22.0858 125.408 14.0512C125.903 13.5009 125.903 13.5009 125.298 13.1157C123.812 12.7304 120.62 8.98829 119.63 10.0339C118.804 11.0245 108.568 19.7745 108.403 18.1786C106.752 14.1062 105.377 9.31848 104.331 5.46626C102.57 5.63136 100.754 5.79645 98.9929 6.01658C98.1674 6.45683 98.4976 7.77759 98.1124 8.71313C95.746 0.678506 93.2146 4.03544 86.5007 2.98984C85.9504 2.93481 85.8954 3.0999 86.0605 3.59518C88.4268 12.6754 90.2979 21.8657 91.0683 31.2211C90.0778 38.3202 87.8215 45.5293 87.2712 52.5734C90.1878 56.8658 96.0212 58.2966 100.534 55.6001C102.68 50.7023 104.496 44.8689 104.276 39.3658Z" fill="#2E313D"/>
<path d="M95.3064 60.0576C90.7938 60.0026 83.9149 56.8107 84.0249 51.3626C85.2907 44.4837 86.9416 37.6047 87.8771 30.6157C87.1617 20.9851 85.3457 13.3908 82.9793 3.98037C82.0988 0.788532 85.2906 -0.422164 87.9322 0.128153C91.6193 0.678469 96.8473 -1.13758 98.7734 3.04482C105.047 2.43948 107.468 0.898591 108.239 8.43793C108.404 8.2178 108.624 8.05271 108.789 7.83258C110.99 4.97094 114.512 7.61245 117.319 8.2178C120.071 3.65018 124.308 9.59359 127.225 10.7493C129.481 12.4002 129.646 13.6659 127.885 15.8672C122.987 20.9301 117.319 26.9836 112.201 33.3122C110.44 35.5135 108.734 37.7148 107.413 40.1362C107.523 45.3642 105.762 50.4271 103.781 55.9853C102.681 59.1221 97.8379 59.9475 95.3064 60.0576ZM88.0422 52.023C91.179 56.0403 95.3064 57.0309 99.764 54.7746C101.635 49.2164 103.836 44.4286 103.011 39.2556C108.954 29.405 116.384 22.1408 124.198 13.721C122.822 12.8955 121.501 11.96 120.236 11.0244C117.099 14.2713 113.302 16.5276 109.78 19.3342C109.56 19.4993 109.009 19.9395 108.349 19.7194C106.258 17.9034 104.332 9.75869 103.561 6.67692C102.185 6.78698 100.81 6.95207 99.4888 7.06214C99.3237 7.88761 98.5533 11.4647 98.3882 12.3452C97.2875 9.97882 96.297 6.45679 94.7561 4.36559C92.3347 4.42062 89.8032 4.31055 87.2168 4.14546C89.5281 13.2257 91.3441 22.3609 92.0595 31.221C90.7388 38.2101 89.363 45.1991 88.0422 52.023ZM107.413 12.5103C107.964 14.0512 108.514 15.592 109.064 17.1329C112.036 14.8766 115.118 12.7304 117.924 10.309C115.668 10.9144 112.036 7.44736 110.33 9.2634C109.56 10.0889 108.184 11.6298 107.413 12.5103ZM119.906 8.60302C119.795 8.60302 119.685 8.65805 119.575 8.71308C119.74 8.65805 119.906 8.60302 120.071 8.60302C120.016 8.60302 119.961 8.60302 119.906 8.60302ZM97.5627 4.97093C97.6177 5.13603 97.7278 5.30113 97.7828 5.46622C97.8929 5.35616 98.003 5.24609 98.113 5.19106C97.9479 5.13603 97.7278 5.08099 97.5627 4.97093Z" fill="#2E313D"/>
<path d="M104.277 39.3108C109.945 29.9004 117.925 22.0859 125.409 14.0512C126.895 13.2808 121.282 10.9695 120.676 9.97889C119.961 8.98832 117.374 12.7855 116.164 13.1707C114.898 13.7761 108.9 19.6094 108.404 18.2336C106.753 14.1613 105.377 9.37354 104.332 5.52133C102.571 5.68642 100.755 5.85152 98.9938 6.07164C98.1683 6.5119 98.4985 7.83266 98.1133 8.7682C95.7469 0.678547 93.2155 4.0905 86.5016 3.0449C85.9513 2.98987 85.8963 3.15497 86.0614 3.65025C88.4277 12.7305 90.2988 21.9208 91.0693 31.2761C93.4907 24.7824 103.286 35.6787 104.277 39.3108Z" fill="#82B662"/>
<path d="M104.496 39.696C104.441 39.8061 104.441 39.8611 104.551 39.9712C104.661 45.5844 102.9 51.4728 100.534 56.4807C95.8563 59.2322 89.8578 57.7464 86.8311 53.3439C87.3814 46.0797 89.6927 38.6504 90.7383 31.3312C93.2698 24.6724 103.561 35.9538 104.496 39.641C104.496 39.641 104.496 39.641 104.496 39.696ZM99.2132 40.0812C99.8736 39.9712 99.3783 38.4303 98.938 38.2652C97.8374 37.99 97.6173 39.641 98.0025 40.4114C98.3877 40.1363 98.7729 39.9712 99.2132 40.0812ZM92.9946 37.4947C92.7745 35.7337 90.188 38.2652 91.7289 38.4853C92.0591 38.4853 92.2242 39.0356 92.5544 38.9256C92.9396 38.6504 93.0496 37.99 92.9946 37.4947ZM96.6817 40.6315C96.9569 40.4114 96.6267 40.0812 96.4616 40.4114C95.8562 41.0718 95.1408 41.0168 94.4254 40.6866C94.0402 40.5215 93.765 40.3014 93.765 39.8611C93.765 39.751 93.8201 39.5859 93.655 39.5859C92.7195 40.8517 95.8563 41.8422 96.6817 40.6315Z" fill="#FFF9F9"/>
<path d="M104.275 39.3657C104.22 39.4757 104.22 39.5308 104.33 39.6408C104.33 39.5308 104.33 39.4757 104.275 39.3657Z" fill="#698C30"/>
<path d="M97.9473 40.0811C98.3325 39.6959 98.8828 39.861 99.3231 39.6959C99.8184 36.9993 97.0117 37.7698 97.9473 40.0811Z" fill="#2E313D"/>
<path d="M93.1043 37.7696C93.3795 35.1281 90.2977 37.9897 91.8936 38.2649C92.7191 38.7051 92.7742 39.0353 93.1043 37.7696Z" fill="#2E313D"/>
<path d="M94.3148 41.512C94.9752 41.7321 96.2409 41.512 96.1859 40.7415C96.0758 40.6315 95.9658 40.7415 95.9107 40.8516C95.3604 41.4569 94.645 41.4019 93.9846 41.1268C93.6544 40.9617 93.3242 40.7415 93.3242 40.3013C93.3242 40.1912 93.3793 40.0261 93.2142 40.0261C92.6639 40.5214 93.4343 41.4019 94.3148 41.512Z" fill="#1B2229"/>
<path d="M94.9214 42.1171C93.1604 42.2822 91.3994 40.0259 93.2154 39.4756C94.151 39.4756 93.6007 40.3561 94.206 40.6312C95.4717 41.2366 95.3617 40.136 96.3522 40.136C97.618 40.9064 95.912 42.2822 94.9214 42.1171ZM93.2705 40.3011L93.5456 40.3561C93.5456 40.3011 93.6007 40.246 93.6007 40.246L93.2705 40.3011Z" fill="#2E313D"/>
<path d="M95.4717 3.65021C98.8836 6.45682 99.3239 22.3059 99.3789 24.6173L95.4717 3.65021Z" fill="#A0CD85"/>
<path d="M109.118 18.4537L102.515 28.1392L119.574 10.0889L109.118 18.4537Z" fill="#A0CD85"/>
<path d="M85.7858 3.0448C85.4006 3.15486 93.4839 3.49995 94.0892 3.38989C94.0892 3.38989 87.5468 1.77908 88.4823 11.0794C90.0783 26.4333 85.7858 3.0448 85.7858 3.0448Z" fill="#417E4F"/>
<path d="M125.299 13.1156C121.337 16.8578 105.433 31.166 104.332 39.6409C104.277 38.7053 123.043 15.3719 125.409 14.0511L125.299 13.1156Z" fill="#417E4F"/>
<path d="M154.52 40.0811L150.943 32.2116C133.718 24.287 108.789 16.0323 89.9128 13.3358H66.4143C61.2964 14.3263 46.1077 16.9128 41.3749 18.4537L29.9834 23.4065L21.9487 30.5607C19.3623 37.0544 16.5006 46.6299 14.6846 53.3988L36.9724 94.0122L41.3749 93.6269L64.4332 58.5167C86.6109 57.4711 134.544 61.3234 156.831 63.9649L154.52 40.0811ZM26.3513 28.9647L45.2822 23.6817V25.2226L38.5683 47.1802L18.5368 50.4271L26.3513 28.9647ZM36.6972 73.7605C24.5903 73.7055 24.5903 53.729 36.6972 53.6739C48.8042 53.729 48.8042 73.7605 36.6972 73.7605ZM70.7618 45.9145L41.485 46.1896L49.1344 22.2509L78.6314 20.655L70.7618 45.9145ZM80.2823 47.3453C78.5763 37.8799 78.9065 39.2006 80.9427 30.0654L83.309 20.71L85.9506 17.8483L108.734 22.416L112.036 50.5371L80.2823 47.3453ZM122.326 52.2431L114.182 50.262L111.54 22.6361L127.995 28.0842C128.27 33.2022 128.93 49.1063 130.636 53.784L122.326 52.2431ZM132.287 53.6739L130.086 28.9647L140.157 32.1015L142.248 55.49L132.287 53.6739ZM144.009 55.8752L142.303 33.3673L150.778 36.0638L152.869 58.4617L144.009 55.8752Z" fill="#F7D0D5"/>
<path d="M103.176 84.2164H91.2344V103.643H103.176V84.2164Z" fill="#FFF9F9"/>
<path d="M147.97 77.8879H139.495V97.3141H147.97V77.8879Z" fill="#EFEEEE"/>
<path d="M56.2336 43.8232C58.1046 43.7131 59.8656 44.4836 60.9663 45.8594C62.0119 45.6943 63.0575 45.6392 64.1031 45.6943C61.4065 39.4757 51.5559 39.6408 49.0244 45.9144C50.015 45.9144 51.0056 46.0795 51.9961 46.2446C52.9867 44.9238 54.4726 43.9883 56.2336 43.8232Z" fill="#2E313D"/>
<path d="M119.465 70.2385H79.7324V97.5892H119.465V70.2385Z" fill="#FFF9F9"/>
<path d="M157.078 76.0906L117.484 79.4147L118.944 96.7986L158.538 93.4746L157.078 76.0906Z" fill="#EFEEEE"/>
<path d="M34.7712 89.9947L38.4583 95.0026L48.254 83.1708L57.9946 63.3044L83.9145 54.8845L156.831 63.9648L154.52 40.081L151.493 33.3121C151.493 33.3121 153.089 39.2005 153.64 48.5009C154.19 57.7462 155.621 61.3233 153.474 60.9931C151.328 60.6629 105.047 54.9946 91.1236 53.894C70.6518 53.1235 75.6047 49.7666 60.6911 57.361C55.6832 60.3877 33.7256 88.0136 33.7256 88.0136L34.7712 89.9947Z" fill="#D5979F"/>
<path d="M27.5625 65.1204C27.6175 82.1802 51.8315 78.8783 45.6129 58.8467L45.7229 66.0559L43.3016 71.2289L38.1286 74.0355L34.6065 73.7603L29.7087 70.4034L27.5625 65.1204Z" fill="#D5979F"/>
<g opacity="0.34">
<path opacity="0.34" d="M17.3266 53.0135C17.3266 53.0135 14.7401 56.3154 17.8769 60.9931C21.0137 65.6158 33.6159 88.0136 33.6159 88.0136C32.7904 85.8674 22.7196 58.6267 29.8738 54.0041C34.6615 49.6016 36.9728 53.3437 39.2842 46.5198L17.8218 51.3075L17.3266 53.0135Z" fill="#FEF8FB"/>
</g>
<g opacity="0.34">
<path opacity="0.34" d="M82.0438 18.5085C76.9259 25.2774 73.1287 44.0982 74.7796 52.408L75.44 52.6281L75.9903 37.8796C77.6413 33.257 80.8331 23.2412 82.0438 18.5085Z" fill="#FEF8FB"/>
</g>
<g opacity="0.34">
<path opacity="0.34" d="M27.3971 62.424C25.5811 47.2903 48.3642 48.0057 46.4381 62.479C46.218 66.0561 44.4019 57.3611 44.4019 57.3611L39.4491 53.784L36.1472 52.9585L32.8453 53.674L29.7085 56.6457L27.3971 62.424Z" fill="#FEF8FB"/>
</g>
<g opacity="0.34">
<path opacity="0.34" d="M27.4512 27.4238L28.3867 24.8373L40.4937 18.5087L53.0959 14.5464L80.3366 13.0055L97.8917 14.6014C96.9562 14.3813 79.5662 13.2256 78.9608 18.6187L49.4638 21.5354L46.8774 30.7807L43.1352 30.9458L47.7579 21.4253L27.4512 27.4238Z" fill="#FEF8FB"/>
</g>
<path d="M80.3923 52.298C80.3923 47.6203 113.686 51.1974 112.091 50.427L80.2822 47.2902L80.3923 52.298Z" fill="#D5979F"/>
<path d="M115.943 19.7193L111.596 22.636L115.778 24.2319L120.291 20.4347L115.943 19.7193Z" fill="#F1C2DA"/>
<path d="M162.83 86.4728C162.61 84.9869 161.124 84.4916 159.858 84.4916C158.262 84.4366 158.538 75.9067 157.932 74.0907C157.327 69.0278 156.776 63.9098 156.171 58.8469C154.575 50.5921 156.777 38.8154 150.888 32.2666C122.107 17.9584 87.9869 8.603 56.0135 14.1062C43.5764 16.0873 22.9395 22.1408 19.8027 36.0638C26.2414 22.2508 42.4758 17.353 56.4538 15.1518C86.9413 9.53854 117.924 18.4537 145.77 30.5606C151.879 32.7069 153.365 36.7242 153.915 43.1078C154.355 48.2258 154.63 53.784 155.181 58.957C155.071 59.7824 156.171 62.9743 155.126 62.8092C152.429 62.3139 149.677 61.8736 146.981 61.4334C136.525 59.7274 126.124 58.0765 115.668 56.4805C104.056 55.0497 92.3344 54.0591 80.6677 52.7934C79.5671 52.1881 80.6127 49.3815 80.2825 48.1157C80.2825 47.6204 80.4476 47.4553 80.9429 47.5104C90.9036 48.4459 100.919 49.4365 110.88 50.4271C112.036 50.5371 112.091 50.5922 111.871 49.3815C110.605 41.567 110.11 30.0103 108.569 22.2509C105.762 20.2697 100.589 20.3798 97.0672 19.3342C92.2244 19.059 86.2259 16.3625 81.8234 18.4537C77.9712 28.7996 74.229 40.4113 75.1095 51.6378C75.1095 52.078 75.0545 52.2981 74.5592 52.3532C63.1126 54.2793 55.3532 63.9648 49.4097 73.1551C46.6582 77.5026 44.3469 82.0703 42.2006 86.7479C41.9255 87.3533 41.5953 87.5184 40.9899 87.4633C38.6236 87.0781 35.5968 88.1237 33.5606 87.0231C31.0292 82.5105 28.4427 77.9979 25.8562 73.4853C22.3892 67.3218 18.8672 61.1582 15.4002 55.0497C14.9049 52.1881 16.3357 48.611 16.9411 44.5937C12.6486 54.8846 13.9694 66.0561 13.4741 76.9523C13.1989 80.8045 13.9694 84.7668 12.9238 88.509C12.2634 90.1599 13.9144 89.9948 14.1345 91.0954C13.8043 91.976 14.6298 93.792 13.5291 94.1222C11.0527 94.6725 10.9977 98.0845 12.0433 99.9005C12.3735 100.836 13.6392 100.836 13.9694 101.606C14.1895 102.047 13.9694 103.478 14.6848 103.368C16.9961 103.423 19.8027 103.423 21.7288 102.267C21.7839 101.717 22.1691 101.827 22.4993 101.827C25.9112 102.322 30.0936 101.496 33.1754 102.652C35.982 109.971 44.2918 108.21 50.5654 108.1C54.6378 108.375 54.8579 103.037 58.435 103.312C65.479 103.368 72.5781 103.368 79.6221 103.368C81.9885 104.743 81.7684 109.311 87.1064 109.476C96.5719 110.136 101.965 109.696 104.607 99.2952C104.772 98.6348 105.047 98.4697 105.652 98.4697C114.842 98.2496 123.978 96.9288 133.168 96.2134C135.259 97.5892 135.259 101.441 139.386 101.221C145.165 101.662 148.467 100.671 149.953 94.4524C150.008 94.1222 150.008 93.6819 150.448 93.792C150.998 93.9021 151.714 93.2967 152.044 94.2323C153.97 94.5624 156.446 93.6819 158.537 93.5719C163.105 93.2417 164.041 90.4901 162.83 86.4728ZM22.7744 70.6787C22.6644 70.5686 22.5543 70.5136 22.4442 70.5136C22.4993 70.4586 22.6644 70.5136 22.7744 70.6787ZM16.9411 70.8438C17.7115 68.1473 23.1597 70.1834 21.7839 72.7699C21.2336 73.7605 19.8578 73.8705 19.0323 73.2102C17.7115 73.1001 16.6109 72.2196 16.9411 70.8438ZM15.6754 78.8234C15.6203 76.6221 16.9411 74.4209 18.537 74.1457C16.3908 76.7322 16.3908 80.1992 18.4269 83.2259C17.0511 83.0058 15.7304 80.9146 15.6754 78.8234ZM21.3436 75.9067C17.7666 75.7966 17.3813 82.6206 20.7383 83.336C14.3546 84.3816 18.0417 66.9916 23.1046 76.6772C22.6644 76.1819 22.004 75.9067 21.3436 75.9067ZM23.3248 71.8344C23.71 72.8249 24.0952 74.0356 24.3153 74.4759C24.0402 74.3108 23.71 72.935 23.3248 71.8344ZM40.4396 91.0404C39.5591 95.0027 37.688 93.4618 35.982 91.0404C35.5418 90.27 37.688 90.8203 38.1283 90.6552C38.7336 90.8753 40.3846 90.27 40.4396 91.0404ZM40.8248 90.0498H35.927V89.9948L40.8248 90.0498C40.8248 89.9948 40.8248 90.0498 40.8248 90.0498ZM59.0403 89.9948C50.7855 85.8124 46.8233 68.7526 59.0953 67.652C60.8563 65.3406 63.718 69.0278 61.2416 70.2935C61.3516 70.2935 61.5167 70.3485 61.6268 70.4586C56.0686 73.4853 54.5827 82.0703 60.8563 85.097C59.2604 85.152 58.1047 84.4917 57.1142 83.5011C58.1598 85.042 59.4805 86.3077 60.8013 87.0231C62.7824 88.0137 61.0214 91.0404 59.0403 89.9948ZM66.7447 78.163C65.479 73.3753 59.5356 74.7511 59.6456 79.7039C59.6456 82.3454 61.4067 84.4366 63.5529 84.2715C59.5906 86.6929 56.0135 80.3092 57.1692 76.7872C57.6095 74.2558 59.5356 72.4397 61.5167 71.0089C64.9287 69.6331 67.0199 75.4114 66.7447 78.163ZM92.5546 19.4993C97.5074 20.2147 102.405 21.3153 107.303 22.4159C107.798 22.526 107.963 22.7461 108.073 23.2414C108.789 30.7808 110.495 42.7777 110.88 49.7116C103.396 48.9962 95.9665 48.2258 88.4822 47.5104C88.042 47.5104 87.9319 47.3453 88.042 46.905C89.0876 38.5402 90.2432 28.6345 91.509 20.3247C91.619 19.3342 91.619 19.3342 92.5546 19.4993ZM80.0624 50.5371C80.3926 53.8941 78.7967 52.3532 76.5404 52.4082C74.3391 47.8956 77.3658 35.0182 78.8517 30.0103C80.1174 26.4333 81.2731 22.8562 82.4838 19.2791C82.7589 18.3436 83.8596 18.5087 84.685 18.5087C80.3926 25.8279 77.696 37.9899 79.402 46.2997C80.2275 47.7305 80.1174 49.0513 80.0624 50.5371ZM80.1174 35.6235C81.3831 30.2304 81.9885 24.287 84.9602 19.4993C86.391 17.6282 89.0325 19.3892 90.7385 19.1691C91.1788 19.2241 91.2888 19.3342 91.2338 19.8295C90.1882 27.0386 88.7574 39.0905 87.7668 46.2446C87.6017 47.3453 87.6567 47.2903 86.5561 47.1802C84.63 46.6299 81.6033 47.5104 80.2275 46.0245C79.457 44.2635 79.7322 37.5497 80.1174 35.6235ZM100.424 99.5153C96.2417 105.239 91.0137 97.7543 91.8942 93.0216C91.7291 89.0593 95.8565 82.9508 99.8187 87.1332C102.845 90.5451 102.735 95.9382 100.424 99.5153ZM111.981 97.369C110.22 97.6992 109.724 97.6992 110.055 95.7731C110.55 73.3753 91.564 73.3753 88.3171 94.2323C88.2621 95.3329 87.4366 95.1678 86.6662 95.1128C84.8501 95.1678 84.7951 95.1678 85.2354 93.4618C91.1788 65.6158 114.567 71.6142 111.981 97.369ZM146.21 94.3423C143.239 98.1395 141.368 90.7102 143.239 88.619C146.155 84.8218 147.971 92.3612 146.21 94.3423ZM153.53 90.8203C153.365 91.5907 153.97 93.0766 153.199 93.4068C152.869 93.4068 153.034 93.0766 153.034 92.9115C153.089 75.8517 140.487 79.7589 139.111 93.792C138.946 94.7826 138.616 95.1128 137.625 94.9477C137.295 94.8926 137.405 94.6725 137.405 94.4524C137.681 80.3643 153.365 71.284 153.53 90.8203Z" fill="#2E313D"/>
<path d="M57.0052 71.9994C57.1153 71.8893 57.2253 71.7793 57.3354 71.6692C54.859 72.9899 54.3086 75.6315 54.914 78.383C54.6939 75.9066 55.5744 73.4302 57.0052 71.9994Z" fill="#1E2517"/>
<path d="M147.972 79.0986C147.862 79.1536 147.752 79.2087 147.642 79.1536C147.862 79.0986 147.972 79.0436 147.972 79.0986Z" fill="#1E2517"/>
<path d="M19.9127 36.0088C18.4819 38.7604 18.0416 40.9616 17.1611 44.7038C18.3168 41.9522 18.8671 39.806 19.9127 36.0088Z" fill="#1E2517"/>
<path d="M45.5034 31.7712C44.2927 34.9631 42.6417 42.9977 41.431 46.1895C41.2109 46.7949 41.431 46.7949 41.9263 46.7399C50.6764 45.8594 60.472 46.7399 70.7629 45.8594C74.2299 40.1911 75.3305 30.1753 77.862 24.0668C78.5774 22.0857 80.5585 17.2979 77.0365 17.2979C68.1214 17.1328 59.3163 18.2335 50.6213 20.0495C49.3006 20.3247 49.2455 22.7461 48.6402 23.6816L49.1905 22.2508C47.9248 25.4426 46.7141 28.5794 45.5034 31.7712ZM66.9107 18.5637H66.8557L66.8006 18.5086C66.8557 18.5636 66.8557 18.5637 66.9107 18.5637ZM49.6308 24.6171C52.4374 24.452 80.0633 18.7287 77.0916 23.6266C74.9453 29.0747 72.3588 39.3656 70.2676 44.8138C70.1025 45.254 69.8824 45.4191 69.3871 45.4191C60.5821 45.254 51.777 44.9788 42.9719 45.8043C42.2565 45.8594 42.6417 45.4741 42.6968 45.254C45.0081 39.2005 45.8336 29.57 49.6308 24.6171Z" fill="#2E313D"/>
<path d="M38.5679 47.2352C40.604 45.9144 40.9342 37.7697 42.1449 35.6235C42.31 34.1927 49.4641 19.2241 47.0978 20.82C19.1417 27.4788 28.5521 28.4143 17.876 51.3625C24.81 49.9868 31.6339 48.5559 38.5679 47.2352ZM19.4169 50.0418C28.7722 27.2037 19.8571 33.037 45.2817 25.2225C42.5852 31.0008 40.7141 39.6958 38.733 45.8044C38.5679 46.2446 38.3477 46.4097 37.9075 46.5198C31.7439 47.5654 25.5254 49.2713 19.4169 50.0418Z" fill="#2E313D"/>
<path d="M112.037 30.3405C112.918 35.3484 113.358 45.2541 114.183 50.262C114.293 50.8123 114.513 51.0324 115.064 51.0875C120.347 51.5277 126.235 53.3438 131.133 53.6739C129.427 45.9695 128.877 35.9538 127.996 28.0842C127.941 27.644 127.721 27.3138 127.226 27.1487C122.053 25.4977 116.825 24.0119 111.597 22.6361C109.781 22.3609 112.202 29.0198 112.037 30.3405ZM112.312 23.7367C134.985 29.7902 124.529 25.1125 130.087 52.2982C130.418 53.5639 122.493 51.0875 121.227 51.1975C119.521 50.5371 115.999 51.0875 114.954 49.7117C113.798 42.8327 113.028 31.111 111.817 24.232C111.762 23.7367 111.817 23.6267 112.312 23.7367Z" fill="#1E2517"/>
<path d="M131.792 51.9128C132.067 54.1691 132.398 54.1141 134.544 54.5543C135.7 54.5543 143.239 57.1408 142.854 55.9852C141.753 49.6565 141.148 38.4301 140.102 32.0464C137.351 29.9002 133.058 29.3499 129.701 27.919C128.931 27.6989 128.931 27.6989 129.096 28.4143C130.141 34.6879 130.747 45.7493 131.792 51.9128ZM133.663 30.2304C135.369 31.2209 138.286 31.1659 139.387 32.8168C140.267 39.1455 140.432 48.666 141.808 54.8845C141.918 55.3248 141.753 55.3798 141.423 55.2698C138.781 54.2792 134.874 54.5543 132.838 52.8484C131.792 45.9694 131.517 35.7886 130.031 28.9646C131.297 29.4049 132.508 29.7901 133.663 30.2304Z" fill="#1E2517"/>
<path d="M141.973 36.9443C143.183 40.4113 142.468 55.3799 144.999 56.8657C146.32 56.8107 153.584 59.3422 153.364 58.0214C152.319 52.3531 151.768 41.732 150.778 36.0638C150.282 34.9081 148.411 34.9081 147.366 34.3028C141.477 32.7068 140.322 29.2398 141.973 36.9443ZM142.303 33.3672C144.724 33.8625 147.091 35.2383 149.457 36.0087C149.787 36.1188 149.952 36.2839 150.007 36.6141C150.943 41.8971 151.383 51.9679 152.374 57.306C152.759 57.8013 144.174 56.0953 144.834 55.545C143.844 48.5009 142.743 40.4113 142.303 33.3672Z" fill="#1E2517"/>
<path d="M30.9196 55.3799C21.124 64.1299 33.451 80.8595 43.3567 71.229C51.7215 63.0292 41.0454 46.7949 30.9196 55.3799ZM41.9809 71.5041C31.3598 79.2636 22.5548 61.4884 32.4054 55.1047C42.6413 48.7761 50.5108 65.1755 41.9809 71.5041Z" fill="#1E2517"/>
<path d="M95.4169 89.2794C92.3351 92.2511 95.2518 101.662 99.9295 97.3141C103.176 94.3423 100.04 84.6568 95.4169 89.2794ZM100.7 93.5169C100.81 98.5798 95.2518 99.7354 94.7565 94.0672C93.876 87.7936 100.755 86.3077 100.7 93.5169Z" fill="#1E2517"/>
<path d="M144.009 89.0042C143.129 90.1598 143.074 92.251 144.009 93.4067C147.641 96.4885 147.531 85.9224 144.009 89.0042ZM145.88 93.1316C143.129 95.7731 142.964 86.8579 145.825 89.2793C146.596 90.2149 146.596 92.196 145.88 93.1316Z" fill="#1E2517"/>
<path d="M41.376 69.413C42.5867 69.1378 44.2377 64.8454 43.7974 63.9648C42.6968 65.1755 42.2565 67.2667 41.4311 68.8076C41.321 69.0277 41.1009 69.2479 41.376 69.413Z" fill="#1E2517"/>
<path d="M35.9818 63.3044C35.3765 62.534 33.7255 55.4899 32.735 56.9758C31.9095 58.0764 30.0384 59.3421 30.8639 60.773C31.3041 61.7635 33.5054 67.5969 33.9457 68.7526H34.3309C34.7711 66.9365 36.0369 65.1755 35.9818 63.3044ZM31.6343 60.9381C30.8639 59.3972 32.2947 58.7918 33.0101 57.6362C34.3309 61.4884 36.257 63.1944 34.1108 67.2117C33.2853 65.1205 32.5148 62.9742 31.6343 60.9381Z" fill="#1E2517"/>
<path d="M43.1363 59.0671C42.4759 58.5718 40.88 55.8202 40.1095 57.251C39.3391 59.2872 38.5136 61.3234 37.7432 63.3045C37.7982 65.1205 39.4491 66.9916 40.0545 68.7526C40.3847 68.4775 41.3202 65.836 41.4853 65.3957C41.8155 63.4696 44.1268 60.9932 43.1363 59.0671ZM40.2746 58.8469C40.4397 58.4617 40.5498 58.0765 40.7149 57.6913C41.4853 58.4617 42.751 59.1771 42.696 60.2227C41.8155 62.479 40.935 64.9004 40.0545 67.2117C37.7982 64.3501 38.8438 61.8737 40.2746 58.8469Z" fill="#1E2517"/>
<path d="M37.4131 67.2117L36.8627 66.001L36.4775 66.0561C36.3675 67.2117 34.2212 70.5136 35.3219 71.119C39.8895 71.9445 38.954 70.2935 37.4131 67.2117ZM38.0184 70.3486C34.4414 71.5042 36.2024 69.5231 36.7527 67.4319C37.1379 68.4224 37.6882 69.413 38.0184 70.3486Z" fill="#1E2517"/>
<path d="M36.2572 58.792L36.8075 60.2778C36.8075 60.0577 38.8437 55.9303 38.6235 55.8202C37.688 55.1048 36.037 55.1048 35.2666 55.8202C35.2666 56.8108 35.982 57.8014 36.2572 58.792ZM37.633 56.8108C37.3578 57.3061 37.1927 57.8564 36.9176 58.4067C36.6424 57.6363 36.3122 56.8659 36.037 56.1504C36.037 56.1504 36.037 56.1504 36.1471 56.0954C36.6974 55.9853 38.3484 55.7652 37.633 56.8108Z" fill="#1E2517"/>
<path d="M30.3149 63.5245C30.2598 63.5245 30.2048 63.5245 30.1498 63.5245C29.3243 67.3767 33.8919 72.7148 30.3149 63.5245Z" fill="#1E2517"/>
<path d="M16.1149 103.037C15.6747 103.037 15.2895 103.037 14.8492 102.982C14.7392 101.992 14.6291 100.781 13.4184 100.506C11.6024 99.35 11.4923 95.2777 13.8036 94.6173C15.3445 94.3422 14.519 92.251 14.7942 91.1503C14.7942 90.7651 14.7392 90.3799 14.1888 90.1047C13.2533 89.6645 13.3634 89.1142 13.5285 88.7289C14.1338 87.2431 14.0237 85.8123 14.0237 84.3814C14.1338 74.5308 14.0788 64.57 14.9043 54.6643C19.2518 63.1392 24.3697 71.394 28.9924 79.7588C30.8634 82.0701 31.909 86.9679 34.5506 88.0686C36.5867 87.6833 41.9248 89.0591 42.7503 87.078C49.9044 71.6691 59.4249 56.0401 75.6042 52.4631C76.5947 53.1785 78.851 53.2335 80.0617 53.0684C91.7285 54.9395 103.89 55.3798 115.667 57.0307C126.123 58.6266 136.524 60.2776 146.98 61.9836C149.071 61.9285 155.125 64.1848 156.116 62.8641C156.996 70.6235 157.766 77.1173 158.537 83.8861C158.482 85.0968 159.803 84.9868 160.903 85.2069C162.224 85.5371 162.279 86.4726 162.444 87.5182C164.645 93.5167 157.656 93.2966 153.584 93.9019C153.584 93.9019 153.584 93.9019 153.584 93.8469C156.666 70.0182 134.048 77.8877 132.892 95.8831C126.288 96.4884 119.354 97.1488 112.751 97.7541C112.751 97.6991 112.751 97.6441 112.751 97.534C113.026 90.49 111.705 80.6393 105.046 75.9616C88.3165 63.3043 76.5397 90.0497 77.5303 103.037C71.2016 103.037 65.0381 103.037 58.1591 102.982C48.3635 102.322 39.0632 100.286 29.1024 101.771C28.387 101.992 21.343 100.726 21.453 102.267C19.747 102.707 17.986 103.037 16.1149 103.037ZM35.4311 90.545C35.376 91.8657 37.1371 93.0764 38.0726 93.9019C39.7786 94.9475 41.0993 91.7557 40.8242 90.545H41.0993L41.5396 90.2148L41.0993 90.545L35.4861 90.1598L35.4311 90.545ZM55.6827 84.6016C56.5632 85.4821 58.3242 85.5921 59.3698 86.1975L59.0947 85.8673C70.8164 87.6283 72.2473 70.0182 60.6356 69.6329C52.766 69.4679 49.6843 79.9239 55.6827 84.6016ZM18.9216 83.7211C19.8571 84.4915 21.2879 83.611 22.2235 83.2258L21.2329 83.0057C27.0663 81.5748 24.2596 72.4396 18.9766 73.5402C14.1338 73.7053 14.0788 83.666 18.9216 83.7211Z" fill="#E1A6AD"/>
<path d="M75.6592 53.1236C76.9249 53.5088 78.6859 53.6739 80.0617 53.5638C105.486 56.0402 130.251 59.3972 155.84 63.7447C156.611 70.4585 157.381 77.1174 158.152 83.8312C158.537 85.9224 159.693 85.152 160.848 85.5922C161.619 85.8674 161.839 86.1426 161.894 86.6378C163.985 93.1316 159.252 92.5262 154.465 93.2416C156.115 69.1928 133.883 77.7777 132.562 95.4429C126.233 96.0483 119.795 96.6536 113.466 97.2039C111.705 57.416 76.9799 69.6331 77.035 102.542C70.8714 102.542 64.928 102.542 58.1591 102.487C48.3635 101.827 39.0081 99.7904 29.0474 101.276C27.6165 101.496 21.398 100.176 21.0678 101.827C19.1967 102.432 17.2156 102.652 15.2344 102.597C15.1794 102.432 15.0693 101.496 15.0143 101.386C14.7391 100.781 14.2439 100.341 13.5285 100.121C12.3178 99.075 12.3178 97.0939 13.0332 95.7731C13.2533 95.3879 13.5835 95.2228 13.8586 95.1677C15.8948 94.6725 14.9593 92.9114 15.2344 91.5907C15.6197 89.6646 13.5835 89.9948 13.9687 89.0042C15.3995 78.3281 14.1888 67.3768 15.2344 56.5355C19.692 64.4051 24.1496 72.2746 28.6071 80.0891C30.5883 82.5105 31.4688 87.5183 34.4955 88.5639C37.082 88.0136 41.7047 89.8297 43.1905 87.2982C50.3997 72.2196 59.5349 56.2604 75.6592 53.1236ZM53.8116 83.0058C54.3069 84.1064 55.3525 85.097 56.3981 85.6473C57.0035 85.7573 60.5255 87.1331 61.1308 87.3533L60.3054 86.4728C71.917 86.6929 71.9721 69.2478 60.6355 69.1378C53.7566 68.9727 49.299 77.6127 53.8116 83.0058ZM20.0222 72.8249C10.8319 73.7604 14.519 88.8941 23.7093 83.1158L22.7738 82.8957C26.8461 80.3092 24.92 74.0906 20.6826 72.99L20.9577 72.6598L20.0222 72.8249ZM35.266 90.0498H34.9908C34.7707 91.8659 36.5317 93.2967 37.8524 94.2873C40.2738 95.7731 41.3745 91.5357 41.7046 90.0498C40.3839 89.9948 36.3116 89.9948 34.9908 90.0498H35.266ZM75.274 49.1063C74.9988 50.372 75.9343 52.0229 74.7787 52.4632C63.3321 54.3893 55.5726 64.0749 49.6292 73.2652C46.8776 77.6127 44.5663 82.1803 42.4201 86.858C42.1449 87.4083 41.8698 87.6284 41.3194 87.6284C38.898 87.2432 35.8163 88.2888 33.7801 87.1882C27.7266 76.567 21.6731 65.8909 15.6197 55.2148C15.1244 54.1141 15.7297 53.1786 15.7848 51.8578C15.5096 51.8028 15.2344 51.7478 14.9593 51.6927C12.813 63.8547 14.6291 76.457 13.0882 88.619C12.3728 90.2149 14.1338 90.1599 14.2989 91.2055C14.2439 92.0309 14.1888 92.8564 14.1888 93.6819C14.0237 94.6174 12.3728 94.2322 12.1527 95.3328C10.8319 97.9193 11.9325 100.396 14.1338 101.772C14.3539 102.157 14.0788 103.698 14.8492 103.533C17.1605 103.588 19.9671 103.588 21.8933 102.432C21.9483 102.047 22.1134 101.992 22.3886 101.992C27.6716 102.487 32.8446 101.827 38.1276 101.772C51.5003 102.762 64.7079 104.138 78.1356 103.588C77.5853 91.6457 83.5287 74.5309 97.1766 73.1551C108.623 73.9255 113.136 87.6834 112.31 97.424C112.31 97.7542 112.31 98.0294 112.31 98.3596C119.299 97.7542 126.343 97.0388 133.332 96.4335C134.268 78.8784 155.895 70.5136 153.199 93.5718C153.144 93.902 153.089 94.1772 153.034 94.5074C158.372 93.6819 165.361 94.2873 162.774 86.5828C162.444 83.9413 159.197 85.3721 159.032 83.8312C158.152 76.0718 157.271 68.3673 156.391 60.6079C156.06 60.6079 155.785 60.5528 155.455 60.5528C155.4 61.2132 156.005 62.589 155.51 62.9742C152.703 62.534 149.897 62.0387 147.145 61.5984C136.689 59.8925 126.288 58.2415 115.832 56.6456C105.982 55.4349 96.0759 54.6094 86.2253 53.5088C84.4092 53.3437 82.6482 53.1236 80.8322 52.9585C79.8416 52.6833 80.6671 50.9223 80.4469 50.1519C80.3369 50.1519 80.2268 50.0968 80.0617 50.0968C80.3369 53.894 79.4013 52.6833 76.5397 52.5732C75.384 52.2431 76.0994 50.427 75.8243 49.3814C75.6592 49.1613 75.4941 49.1063 75.274 49.1063ZM56.0129 84.2164C50.3446 79.8139 53.1512 69.9633 60.6355 70.0733C73.0177 70.8438 68.9453 89.3894 57.4437 84.8218C57.4987 84.8768 57.5538 84.9319 57.6088 84.9869C57.0585 84.7668 56.4531 84.8218 56.0129 84.2164C56.0679 84.1614 56.178 84.1614 56.233 84.1064C56.178 84.0514 56.1229 84.0514 56.0679 83.9963C56.1229 84.1064 56.0679 84.1614 56.0129 84.2164ZM17.876 75.0812C18.0961 74.9161 18.3162 74.806 18.5914 74.696C19.3068 73.1551 21.0678 73.9806 21.9483 74.806C25.6354 76.6221 24.3146 83.3359 19.4168 82.5655C19.8021 82.9507 20.2423 83.2259 20.6826 83.3359C19.5819 83.8863 18.7565 83.2809 18.2061 82.1803C17.986 82.0702 17.8209 81.9602 17.6008 81.7951C17.8209 82.2353 18.041 82.6756 18.3712 83.1158C14.7942 82.5105 14.8492 74.6409 18.4813 74.0356C18.3162 74.4208 18.0961 74.751 17.876 75.0812ZM35.9263 90.0498L36.7518 90.325L40.8242 90.0498H38.3477H35.9263ZM38.788 93.6269C37.5773 93.2416 36.7518 91.9759 35.9814 91.0404C35.8163 90.2699 37.4672 90.8203 38.1276 90.7102C38.7329 90.8753 40.4389 90.2699 40.4389 91.0954C40.1087 91.9759 39.8336 93.4067 38.788 93.6269Z" fill="#2E313D"/>
<path d="M147.971 79.0971C147.861 79.1521 147.751 79.2071 147.641 79.1521C147.861 79.0971 147.971 79.042 147.971 79.0971Z" fill="#FAD5E6"/>
<path d="M147.972 79.0435C147.972 79.0435 147.807 79.0986 147.642 79.0986C147.752 79.1536 147.862 79.1536 147.972 79.0435Z" fill="#222323"/>
<path d="M36.9714 47.2352C35.3205 47.6755 33.6695 48.0607 32.0186 48.556C33.9997 48.1708 35.9808 47.7855 37.962 47.4003C37.6318 47.2903 37.3016 47.2903 36.9714 47.2352Z" fill="#FAD5E6"/>
<path d="M36.9714 47.2352C35.3205 47.6755 33.6695 48.0607 32.0186 48.556C33.9997 48.1708 35.9808 47.7855 37.962 47.4003C37.6318 47.2903 37.3016 47.2903 36.9714 47.2352Z" fill="#222323"/>
<path d="M30.9186 55.3799C21.123 64.1299 33.4501 80.8596 43.3558 71.229C51.7206 63.0293 41.0444 46.795 30.9186 55.3799ZM41.98 71.5042C31.3589 79.2636 22.5538 61.4884 32.4045 55.1048C42.6403 48.7761 50.5099 65.1755 41.98 71.5042Z" fill="#FAD5E6"/>
<path d="M36.8617 53.0134C24.0943 53.3436 24.8097 74.1456 36.8066 74.0355C49.1887 74.0355 49.2438 53.1235 36.8617 53.0134ZM36.8617 73.3751C25.36 73.2101 25.4151 53.6738 37.0267 53.7288C48.4183 54.004 48.1982 73.4302 36.8617 73.3751Z" fill="#222323"/>
<path d="M41.3751 69.413C42.5858 69.1379 44.2367 64.8454 43.7965 63.9649C42.6958 65.1756 42.2556 67.2668 41.4301 68.8077C41.32 69.0278 41.0999 69.2479 41.3751 69.413Z" fill="#FAD5E6"/>
<path d="M43.7392 64.0189C43.464 64.0739 40.0521 71.228 41.9232 69.1368C42.9688 67.706 44.2345 65.3396 43.7392 64.0189Z" fill="#2E313D"/>
<path d="M35.9779 63.304C35.3726 62.5336 33.7216 55.4895 32.7311 56.9754C31.9056 58.076 30.0345 59.3417 30.86 60.7725C31.3002 61.7631 33.5015 67.5965 33.9418 68.7521H34.327C34.7672 66.9361 36.033 65.1751 35.9779 63.304ZM31.6304 60.9376C30.86 59.3968 32.2908 58.7914 33.0062 57.6357C34.327 61.488 36.2531 63.1939 34.1069 67.2112C33.2814 65.12 32.5109 62.9738 31.6304 60.9376Z" fill="#FAD5E6"/>
<path d="M33.1186 56.7557C32.018 57.5812 29.9818 59.3422 30.8073 60.828C31.2475 61.8186 33.3937 67.6519 33.889 68.8076H34.2742C34.7145 66.9916 35.9802 65.2306 35.9252 63.3595C34.9346 61.2683 34.4944 58.5167 33.1186 56.7557ZM34.1092 67.2667C33.2837 65.1205 32.5132 62.9743 31.6327 60.9381C30.8623 59.3972 32.2931 58.7919 33.0085 57.6362C34.3293 61.5434 36.2554 63.2494 34.1092 67.2667Z" fill="#2E313D"/>
<path d="M40.6019 56.7557C39.171 58.4617 38.7858 61.2683 37.7402 63.3595C37.7953 65.1755 39.4462 67.0466 40.0516 68.8076C41.4273 66.2211 42.2528 63.0843 43.4085 60.3878C43.6286 58.7919 41.7575 57.6362 40.6019 56.7557ZM40.0516 67.2117C37.355 64.0199 39.4462 61.1032 40.7119 57.6912C41.4824 58.4617 42.7481 59.1771 42.6931 60.2227C41.8676 62.479 40.9321 64.8453 40.0516 67.2117Z" fill="#2E313D"/>
<path d="M37.4111 67.2103L36.8608 65.9996L36.4756 66.0546C36.3655 67.2103 34.2193 70.5122 35.3199 71.1175C39.8875 71.943 38.952 70.292 37.4111 67.2103ZM38.0165 70.3471C34.4394 71.5028 36.2004 69.5216 36.7507 67.4304C37.1359 68.421 37.6863 69.4115 38.0165 70.3471Z" fill="#FAD5E6"/>
<path d="M36.8595 65.946L36.4743 66.0011C35.5388 69.0278 33.0623 72.6599 38.5105 70.8989C39.501 70.4036 37.0246 66.9916 36.8595 65.946ZM36.6944 70.6788C36.3642 70.6788 35.979 70.6237 35.7039 70.5137C35.979 69.5231 36.4193 68.4775 36.7494 67.4869C37.1347 68.4775 37.685 69.4681 38.0152 70.4036C37.63 70.5687 37.0797 70.6237 36.6944 70.6788Z" fill="#2E313D"/>
<path d="M36.2552 58.7918L36.8055 60.2776C36.8055 60.0575 38.8417 55.9301 38.6216 55.8201C37.686 55.1047 36.0351 55.1047 35.2646 55.8201C35.2646 56.8106 35.9801 57.8012 36.2552 58.7918ZM37.631 56.8106C37.3558 57.3059 37.1908 57.8562 36.9156 58.4066C36.6404 57.6361 36.3102 56.8657 36.0351 56.1503C36.0351 56.1503 36.0351 56.1503 36.1452 56.0952C36.6955 55.9852 38.3464 55.765 37.631 56.8106Z" fill="#FAD5E6"/>
<path d="M36.8601 55.3248C33.6132 55.1047 36.5849 58.6817 36.805 60.3327L38.566 56.2603C38.8962 55.3248 37.3553 55.3798 36.8601 55.3248ZM36.8601 58.4066C36.5849 57.6361 36.2547 56.8657 35.9795 56.1503C35.9795 56.1503 35.9796 56.1502 36.0896 56.0952C38.7311 55.4899 37.4654 56.9757 36.8601 58.4066Z" fill="#2E313D"/>
<path d="M30.3129 63.5246C30.2579 63.5246 30.2029 63.5246 30.1478 63.5246C29.3223 67.3768 33.89 72.7149 30.3129 63.5246Z" fill="#FAD5E6"/>
<path d="M30.3129 63.5246C30.2579 63.5246 30.2029 63.5246 30.1478 63.5246C29.3223 67.3768 33.89 72.7149 30.3129 63.5246Z" fill="#2E313D"/>
<g opacity="0.5">
<path opacity="0.5" d="M80.833 53.6738C100.589 54.9946 136.36 60.4978 155.896 63.8547L157.877 81.6849C157.877 81.6849 155.841 75.6865 147.972 72.7148C140.102 69.7981 80.833 53.6738 80.833 53.6738Z" fill="#F1C2DA"/>
</g>
<path d="M127.17 20.82C127.776 20.9851 128.491 21.8106 129.041 20.9301C129.647 19.7744 127.274 18.9138 126.668 18.1984C131.566 16.4924 130.692 20.4348 132.838 22.7461C133.004 23.5716 132.673 25.2226 133.884 25.2776C134.489 25.2226 134.765 24.7823 134.71 24.232C134.599 22.9663 134.783 21.4653 135.554 20.4197C136.104 20.5297 136.471 20.5999 136.526 20.0496C141.477 20.4197 144.462 23.1461 142.217 29.3048C141.447 29.2498 140.653 28.7446 139.883 28.5795C137.461 26.1031 133.774 29.515 133.114 32.1566C132.783 33.2022 132.949 35.1833 131.298 34.9632C129.482 34.743 129.867 32.7619 129.647 31.3861C130.142 30.4506 132.178 29.9003 131.188 28.7446C130.142 27.4789 129.427 29.3499 128.601 29.8452C125.464 32.1566 123.538 28.8547 120.566 27.9742C120.952 23.6817 122.107 22.0307 125.849 20.0496C126.4 20.3248 126.84 20.4898 127.17 20.82ZM125.134 23.6267C122.988 24.8374 122.823 25.8279 124.584 28.0842C124.143 26.2682 124.914 25.1675 125.134 23.6267ZM128.491 26.3782C128.876 24.8924 129.757 24.177 129.316 22.8012C127.665 22.5811 127.445 25.2226 128.491 26.3782ZM139.112 23.3515C138.782 24.8924 138.562 25.883 138.232 27.3688C139.552 26.1031 139.938 25.1675 139.112 23.3515Z" fill="#82B662"/>
<path d="M121.172 39.3656C122.217 39.2005 123.043 38.32 124.198 38.4301C124.088 39.3106 122.768 41.8971 124.694 41.4568C124.969 41.787 125.189 42.1172 125.464 42.4474C116.384 45.6943 116.384 50.7572 110.11 56.3704C108.184 55.655 107.249 54.004 106.368 52.3531C110.441 48.8861 108.9 41.2917 115.779 41.787C117.87 41.677 119.851 41.2367 121.172 39.3656ZM111.046 46.4647C110.22 49.8216 115.173 45.3641 114.898 43.9332C113.577 42.9977 111.816 45.0339 111.046 46.4647Z" fill="#54702B"/>
<path d="M145.165 41.5669C143.955 42.3924 142.579 41.8971 141.258 42.1173C140.378 42.3924 140.543 43.2729 140.157 43.8232C139.442 44.8688 138.837 46.1896 137.186 45.4742C134.269 42.2824 142.139 36.9443 138.452 36.9993C135.315 38.8704 136.25 35.6786 136.305 34.4128C137.241 33.8625 137.131 32.8169 137.461 31.9914L137.406 31.9364C139.882 32.2116 142.414 32.4317 143.129 35.5685C143.184 35.8437 143.514 36.2839 143.79 36.3389C146.486 37.1644 146.321 39.1455 145.771 41.2918V41.2368C145.551 41.3468 145.33 41.4569 145.165 41.5669ZM143.79 37.4946C143.624 38.5952 143.459 39.5858 143.294 40.7415C145.33 39.5308 145.385 39.0905 143.79 37.4946Z" fill="#417E4F"/>
<path d="M121.171 39.3658C119.85 41.2369 117.869 41.6221 115.778 41.7872C108.844 41.2919 110.44 48.8863 106.368 52.3533C103.341 47.8407 110.99 42.2825 112.806 38.1551C113.577 37.1095 114.622 36.5041 115.888 36.229C118.75 35.1283 118.42 39.2557 121.171 39.3658Z" fill="#445521"/>
<path d="M110.109 56.3705C116.328 50.7573 116.383 45.7494 125.463 42.4475C127.554 43.4381 134.709 41.7871 134.654 42.8878C134.764 43.6582 133.993 43.5481 133.553 43.6032C132.342 43.7683 131.021 44.0985 129.811 43.9884C119.74 42.2274 119.905 55.1048 111.485 56.8658C111.045 56.7557 110.55 56.5906 110.109 56.3705Z" fill="#89A52A"/>
<path d="M125.959 20.1046C122.217 22.0858 121.061 23.7367 120.676 28.0292C118.53 27.4789 113.137 28.7446 115.173 24.8373C115.613 23.9018 115.998 23.6266 117.594 23.1314C118.145 23.9018 117.209 25.4977 118.585 25.6628C120.896 26.3232 117.814 17.0228 125.959 20.1046Z" fill="#417E4F"/>
<path d="M129.755 31.4411C129.975 32.8169 129.59 34.8531 131.406 35.0182C133.057 35.1833 132.837 33.2572 133.222 32.2116C133.827 29.515 137.514 26.1581 139.991 28.6345C132.506 29.7352 136.028 36.9993 132.011 37.1094C129.094 37.3846 126.068 32.3217 129.755 31.4411Z" fill="#588061"/>
<path d="M142.216 29.3048C144.308 22.9211 141.367 20.765 136.524 20.0496C140.872 16.6927 147.146 21.3154 144.889 26.4883C144.614 27.1487 144.582 28.0441 144.582 28.7997C145.243 31.2211 142.987 30.2954 142.216 29.3048Z" fill="#417E4F"/>
<path d="M145.715 41.2367C146.265 39.0905 146.43 37.1644 143.734 36.2839C143.458 36.1738 143.128 35.7886 143.073 35.5134C142.358 32.3766 139.51 31.8012 137.033 31.526C141.601 27.6738 143.697 32.2664 145.88 34.9631C148.466 36.3389 149.62 38.9303 145.715 41.2367Z" fill="#82B662"/>
<path d="M132.892 22.746C130.746 20.4347 131.511 17.2328 126.668 18.9388C124.446 16.7175 131.111 13.0154 133.993 18.0133C134.708 19.6643 133.222 21.1501 132.892 22.746Z" fill="#417E4F"/>
<path d="M126.949 40.6864C128.765 38.8154 133.388 37.8798 134.709 39.971C132.783 41.4019 129.481 40.9066 126.949 40.6864Z" fill="#445521"/>
<path d="M118.199 31.221C118.474 30.2854 118.584 29.2948 120.07 29.7351C122.161 30.3955 120.345 31.276 120.345 32.4867C120.345 33.3122 120.84 34.4128 119.244 34.1376C117.483 33.8625 117.704 32.4867 118.199 31.221Z" fill="#773A21"/>
<path d="M122.106 36.4491C122.712 34.523 121.006 31.001 124.308 32.4318C126.014 32.2667 126.289 33.2022 124.913 34.1378C124.033 34.9632 123.482 36.1739 122.106 36.4491C122.161 36.4491 122.106 36.4491 122.106 36.4491Z" fill="#445521"/>
<path d="M124.693 41.4568C122.767 41.8971 124.088 39.3106 124.198 38.4301C125.079 37.9898 126.289 35.8986 127.28 36.614C127.83 37.9348 124.308 39.0904 124.693 41.4568Z" fill="#89A52A"/>
<path d="M137.187 45.5293C138.893 46.2447 139.443 44.9239 140.158 43.8783C140.543 43.328 140.378 42.3925 141.259 42.1724C141.809 44.2085 139.113 48.446 137.187 45.5293Z" fill="#82B662"/>
<path d="M122.163 36.449C120.952 38.9804 119.081 35.1832 122.163 36.449C122.107 36.449 122.163 36.449 122.163 36.449Z" fill="#445521"/>
<path d="M137.405 31.9915C137.075 32.8169 137.24 33.8625 136.249 34.4128C136.359 33.4773 136.414 32.4867 137.405 31.9915Z" fill="#C2D136"/>
<path d="M142.248 28.7995C142.468 29.0196 142.743 29.2397 142.963 29.5149C142.248 29.2397 141.587 29.0196 140.872 28.7444C141.312 28.7995 141.753 28.7995 142.248 28.7995Z" fill="#89A52A"/>
<path d="M136.579 20.0495C136.524 20.5998 136.103 21.2702 135.553 21.1601C135.553 20.4197 136.084 20.0495 136.579 20.0495Z" fill="#869F77"/>
<path d="M110.164 56.4256C110.604 56.5907 111.045 56.7558 111.485 56.9209C110.935 57.141 110.439 57.086 110.164 56.4256Z" fill="#54702B"/>
<path d="M127.17 20.82C127.005 20.7099 126.895 20.5999 126.729 20.4898C126.895 20.5999 127.06 20.7099 127.17 20.82Z" fill="#89A52A"/>
<path d="M125.134 23.6266C124.913 25.1675 124.143 26.2681 124.583 28.0841C122.822 25.8278 122.987 24.8373 125.134 23.6266Z" fill="#89A52A"/>
<path d="M128.491 26.3783C127.446 25.2227 127.666 22.5812 129.317 22.8013C129.757 24.1771 128.876 24.8925 128.491 26.3783Z" fill="#89A52A"/>
<path d="M139.111 23.3515C139.881 25.1675 139.551 26.1031 138.23 27.3688C138.561 25.883 138.781 24.8924 139.111 23.3515Z" fill="#869F77"/>
<path d="M111.045 46.4648C111.816 45.034 113.522 42.9978 114.898 43.9334C115.228 45.3091 110.275 49.7667 111.045 46.4648Z" fill="#445521"/>
<path d="M143.789 37.4946C145.385 39.0355 145.275 39.5308 143.294 40.7415C143.459 39.6409 143.624 38.5953 143.789 37.4946Z" fill="#588061"/>
<path d="M113.576 25.6077C112.31 29.1847 115.392 29.1848 116.823 29.68C116.052 31.276 116.933 32.9819 115.502 34.3027C112.916 35.6785 112.255 35.1282 109.669 39.5857C106.477 45.1439 103.505 47.8955 103.725 49.9867C104.661 54.3892 105.982 56.7006 109.614 58.2965C116.878 61.7084 118.639 54.4993 121.666 49.8216C123.922 44.8688 130.141 45.3641 134.323 45.6942C136.964 47.1251 136.854 49.1062 140.542 47.8955C142.468 47.2902 141.862 44.9788 143.238 43.9883C148.796 43.6581 151.328 37.3845 147.365 33.5323C147.255 33.4772 147.421 32.9819 147.476 32.7068C148.411 30.0102 145.604 28.7445 146.65 26.9285C148.796 22.691 144.944 16.3624 138.67 17.2429C137.405 17.408 136.744 17.1328 135.919 16.2523C130.911 11.1894 126.894 15.702 122.051 17.9033C118.804 19.6092 113.576 21.2052 113.521 25.6077H113.576ZM117.979 31.8263C118.419 30.7807 118.254 29.1847 120.015 29.7351C122.106 30.3954 120.29 31.2759 120.29 32.4866C121.225 35.3483 116.878 34.2477 117.979 31.8263ZM120.675 37.1093C120.51 36.9992 120.4 36.6691 120.455 36.559C120.95 35.6785 121.556 36.4489 122.106 36.4489C122.711 34.5228 121.005 31.0008 124.307 32.4316C126.013 32.2665 126.288 33.2021 124.913 34.1376C124.032 34.9631 123.482 36.1738 122.106 36.504C121.831 37.0543 121.446 37.6596 120.675 37.1093ZM118.804 50.8122C117.648 53.1785 113.026 58.6267 110.164 56.4254C107.192 54.8845 104.001 50.537 106.477 47.3452C109.779 43.8782 111.155 37.8247 115.942 36.2288C118.804 35.1282 118.474 39.2555 121.225 39.4206C122.271 39.2555 123.097 38.375 124.252 38.4851C125.133 38.0448 126.343 35.9536 127.334 36.6691C127.884 37.9898 124.362 39.1455 124.747 41.5118C125.023 41.842 125.243 42.1722 125.518 42.5024C127.609 43.493 134.763 41.842 134.708 42.9427C130.746 46.3546 124.913 39.8609 118.804 50.8122ZM134.378 39.4757C135.809 41.3467 128.159 40.9615 126.949 40.6864C128.71 38.8153 132.617 38.265 134.378 39.4757ZM143.568 32.5967C145.549 35.8436 150.667 36.7241 145.715 41.2367V41.1816C144.394 42.3373 142.743 41.9521 141.202 42.1172C140.872 50.1518 133.442 45.5842 138.065 39.9159C138.395 39.0904 139.881 38.375 139.331 37.3294C139.111 36.9992 138.781 36.7791 138.395 36.9992C135.259 38.7603 136.414 36.0087 136.084 34.798C136.414 33.8074 136.194 32.5417 137.35 31.9363L137.295 31.8813C139.386 29.9002 142.303 30.1203 143.568 32.5967ZM115.172 24.8372C115.612 23.9017 115.997 23.6265 117.593 23.1313C118.144 23.9017 117.208 25.4976 118.584 25.6627C120.015 25.7728 119.519 24.397 119.574 23.6816C121.28 14.9315 127.719 22.691 129.04 20.985C129.645 19.8294 127.994 19.3341 127.389 18.6187C123.922 16.9127 132.067 14.3262 133.938 18.0684C134.708 19.7193 133.222 21.2052 132.892 22.8011C133.057 23.6266 132.727 25.2225 133.938 25.3325C135.589 25.2775 134.048 20.8199 136.579 20.1045H136.524C140.872 16.8026 147.145 21.3703 144.889 26.5432C143.788 27.864 145.715 31.331 142.908 29.57C138.781 27.2036 134.433 30.5055 134.103 34.9631C133.938 36.2838 133.497 37.2194 131.957 37.1643C129.04 37.4945 126.013 32.3766 129.7 31.4961C130.196 30.5605 132.232 30.0102 131.241 28.8546C130.196 27.5888 129.48 29.4599 128.655 29.9552C125.518 32.2665 123.592 28.9646 120.62 28.0841C118.474 27.4237 113.136 28.6895 115.172 24.8372Z" fill="#2E313D"/>
<path d="M125.463 24.7271C126.013 24.8922 126.619 25.6076 127.059 24.8372C127.609 23.8466 126.123 23.4064 125.628 22.746C129.81 21.2601 128.545 24.3419 130.361 26.3781C130.526 27.0935 130.251 28.5243 131.241 28.5793C131.792 28.5793 132.012 28.1391 131.957 27.6988C131.902 26.5982 132.067 25.6076 132.727 24.6721C133.222 24.7821 133.442 24.562 133.498 24.0667C137.57 24.7271 141.126 26.7082 139.255 32.2664C138.595 32.2114 137.075 31.6061 136.414 31.496C134.323 29.3498 131.076 32.2665 130.581 34.6328C130.306 35.5684 130.471 37.2193 129.04 37.1092C127.444 36.9441 127.774 35.1831 127.609 33.9724C128.049 33.147 129.81 32.7067 128.93 31.6611C128.049 30.5605 127.389 32.2114 126.674 32.5966C123.922 34.6328 122.271 31.7712 119.685 31.0007C119.96 27.3686 121.115 25.7727 124.307 24.1218C124.803 24.2869 125.188 24.452 125.463 24.7271ZM123.702 27.1485C121.831 28.1941 121.666 29.0746 123.207 31.0558C122.876 29.4598 123.537 28.4693 123.702 27.1485ZM126.619 29.5149C126.949 28.2491 127.719 27.5888 127.334 26.3781C125.848 26.323 125.683 28.5243 126.619 29.5149ZM135.809 26.9284C135.534 28.2491 135.314 29.1297 135.038 30.3954C136.249 29.2947 136.524 28.4693 135.809 26.9284Z" fill="#A0CD85"/>
<path d="M120.29 40.8515C121.226 40.7414 121.941 39.9159 122.932 40.026C122.822 40.7964 121.666 42.9977 123.372 42.6675C123.592 42.9427 123.812 43.2729 124.032 43.548C116.493 46.1345 115.888 50.9223 110.715 55.6C109.009 54.9946 108.238 53.5088 107.468 52.0779C110.99 49.0512 109.669 42.5024 115.668 42.8877C117.373 42.7776 119.134 42.4474 120.29 40.8515ZM111.485 46.96C110.77 49.8767 115.062 45.9694 114.842 44.7587C113.631 43.9332 112.145 45.6943 111.485 46.96Z" fill="#82B662"/>
<path d="M141.092 42.7226C140.046 43.438 138.836 42.9978 137.735 43.2179C136.414 44.0984 136.579 47.0701 134.213 46.1346C131.681 43.438 138.505 38.7053 135.313 38.7603C132.617 40.4113 133.277 37.8097 133.332 36.709C133.377 35.8005 134.158 35.1282 134.433 34.4128L134.378 34.3578C136.524 34.6329 138.725 34.798 139.386 37.4946C139.441 37.7697 139.716 38.0999 139.991 38.155C142.303 38.8704 142.192 40.5764 141.697 42.4474V42.3924C141.422 42.5025 141.257 42.6125 141.092 42.7226ZM139.881 39.2006C139.716 40.1361 139.606 41.0166 139.441 42.0622C141.202 40.9616 141.257 40.5764 139.881 39.2006Z" fill="#417E4F"/>
<path d="M120.289 40.8515C119.134 42.5025 117.428 42.8327 115.612 42.9427C109.613 42.5025 110.934 49.1063 107.412 52.133C106.476 50.6472 106.366 49.2714 107.522 47.7855C110.383 44.8138 111.594 39.5308 115.722 38.155C118.088 37.1094 117.978 40.7415 120.289 40.8515Z" fill="#417E4F"/>
<path d="M110.658 55.6001C115.831 50.9224 116.437 46.0796 123.976 43.5482C125.792 44.4287 131.735 42.9428 131.955 43.9334C132.066 44.5938 131.405 44.5387 131.02 44.5938C115.721 44.2085 121.94 52.6834 111.869 56.0954C111.484 55.8752 111.043 55.7652 110.658 55.6001Z" fill="#A0CD85"/>
<path d="M124.417 24.0669C121.225 25.7179 120.124 27.3138 119.794 30.9459C117.923 30.4506 113.245 31.5512 115.006 28.1943C115.392 27.3688 115.722 27.1487 117.098 26.7084C117.593 27.3688 116.767 28.7446 117.978 28.9097C120.014 29.35 117.373 21.4254 124.417 24.0669Z" fill="#A0CD85"/>
<path d="M127.718 33.9175C127.883 35.1282 127.553 36.8892 129.149 37.0543C130.58 37.2194 130.415 35.5134 130.69 34.5779C131.24 32.2666 134.432 29.2949 136.523 31.4411C130.085 32.3216 133.056 38.6502 129.589 38.8153C127.113 39.0905 124.471 34.688 127.718 33.9175Z" fill="#417E4F"/>
<path d="M138.56 31.6614C140.431 26.2133 137.735 24.6174 133.607 24.067C137.405 21.1504 142.853 25.1677 140.872 29.6252C140.651 30.2306 140.321 30.7809 140.486 31.4413C141.037 33.5325 139.221 32.4869 138.56 31.6614Z" fill="#82B662"/>
<path d="M141.586 42.4475C142.081 40.5764 142.191 38.9254 139.88 38.155C139.605 38.1 139.33 37.7147 139.274 37.4946C138.669 34.743 136.468 34.5779 134.267 34.3578C138.119 31.0009 139.109 35.2383 141.696 37.0544C143.952 38.21 143.842 40.7965 141.586 42.4475Z" fill="#82B662"/>
<path d="M130.416 26.3782C128.544 24.342 129.865 21.2602 125.683 22.7461C122.656 21.1502 129.865 19.059 131.351 22.2508C132.011 23.6816 130.691 24.9473 130.416 26.3782Z" fill="#417E4F"/>
<path d="M125.298 41.9522C126.839 40.3012 130.911 39.5308 132.012 41.3468C130.306 42.5575 127.499 42.1723 125.298 41.9522Z" fill="#417E4F"/>
<path d="M117.703 33.7525C117.923 32.927 118.033 32.1016 119.299 32.4868C121.115 33.0371 119.519 33.8626 119.519 34.8531C119.519 35.5686 119.959 36.5591 118.529 36.284C117.043 36.0088 117.263 34.7981 117.703 33.7525Z" fill="#417E4F"/>
<path d="M121.06 38.265C121.555 36.614 120.179 33.4772 122.986 34.743C124.472 34.6329 124.747 35.4033 123.536 36.2288C122.766 36.9442 122.27 38.0449 121.06 38.265C121.115 38.32 121.06 38.265 121.06 38.265Z" fill="#417E4F"/>
<path d="M123.316 42.6127C121.665 42.9979 122.821 40.7416 122.876 39.9712C123.646 39.5859 124.692 37.7699 125.518 38.3752C125.958 39.641 122.986 40.5765 123.316 42.6127Z" fill="#417E4F"/>
<path d="M134.158 46.1346C136.58 47.0701 136.359 44.0434 137.68 43.2179C138.176 45.0339 135.809 48.7211 134.158 46.1346Z" fill="#82B662"/>
<path d="M121.114 38.32C120.069 40.4662 118.473 37.1643 121.114 38.32C121.059 38.265 121.114 38.32 121.114 38.32Z" fill="#417E4F"/>
<path d="M134.376 34.4127C134.101 35.1281 134.211 36.0637 133.386 36.5039C133.441 35.6784 133.496 34.853 134.376 34.4127Z" fill="#A4BF94"/>
<path d="M133.605 24.0668C133.55 24.5621 133.33 24.7822 132.835 24.6722C133.055 24.342 133.22 24.0668 133.605 24.0668Z" fill="#869F77"/>
<path d="M110.715 55.6C111.1 55.7651 111.485 55.8751 111.87 56.0402C111.375 56.2053 110.935 56.1503 110.715 55.6Z" fill="#54702B"/>
<path d="M125.462 24.7272C125.352 24.6171 125.187 24.5621 125.077 24.452C125.242 24.5071 125.352 24.6171 125.462 24.7272Z" fill="#89A52A"/>
<path d="M123.702 27.1487C123.537 28.4694 122.877 29.46 123.207 31.0559C121.666 29.0748 121.831 28.1943 123.702 27.1487Z" fill="#417E4F"/>
<path d="M126.618 29.515C125.683 28.4694 125.903 26.2682 127.334 26.3782C127.719 27.644 126.948 28.2493 126.618 29.515Z" fill="#417E4F"/>
<path d="M135.809 26.9284C136.524 28.5243 136.194 29.2948 135.038 30.3954C135.368 29.0746 135.533 28.2492 135.809 26.9284Z" fill="#417E4F"/>
<path d="M111.486 46.96C112.146 45.7493 113.632 43.9333 114.843 44.7587C115.063 45.9694 110.826 49.8767 111.486 46.96Z" fill="#588061"/>
<path d="M139.881 39.2006C141.256 40.5764 141.201 40.9616 139.44 42.0623C139.606 41.0167 139.771 40.1362 139.881 39.2006Z" fill="#A4BF94"/>
<path d="M113.631 28.8546C112.475 31.8814 115.227 31.9914 116.437 32.3766C115.777 33.7524 116.547 35.2383 115.282 36.394C113.025 37.6047 112.42 37.1094 110.219 40.9616C107.412 45.7493 104.881 48.1707 105.046 49.9868C105.871 53.784 106.972 55.8201 110.164 57.1959C116.492 60.1676 117.978 53.9491 120.62 49.8767C122.601 45.5842 127.939 45.9695 131.626 46.2997C133.882 47.5104 133.937 49.2714 137.019 48.2258C138.67 47.6754 138.175 45.6943 139.385 44.8688C144.118 44.6487 146.43 39.0355 142.963 35.7886C142.852 35.7336 143.018 35.2933 143.073 35.0732C143.898 32.8169 141.422 31.6062 142.357 30.0653C144.228 26.4332 140.871 20.875 135.423 21.7005C134.323 21.8656 133.772 21.5904 133.002 20.875C128.929 16.5275 124.967 20.4348 120.95 22.3059C118.143 23.7917 113.576 25.1675 113.521 28.9647L113.631 28.8546ZM117.538 34.3028C117.923 33.4222 117.813 31.9914 119.299 32.4867C121.115 33.037 119.519 33.8625 119.519 34.8531C120.29 37.3295 116.547 36.3389 117.538 34.3028ZM119.849 38.8704C119.739 38.7603 119.629 38.4852 119.629 38.3751C120.014 37.6047 120.565 38.265 121.06 38.265C121.555 36.6141 120.179 33.4773 122.986 34.743C124.472 34.6329 124.747 35.4034 123.536 36.2289C122.766 36.9443 122.271 37.9899 121.115 38.265C120.84 38.8153 120.51 39.3106 119.849 38.8704ZM118.198 50.7572C117.043 52.9035 113.411 57.416 110.714 55.6C108.128 54.2792 105.376 50.4821 107.522 47.7305C110.384 44.7588 111.595 39.4757 115.722 38.0999C119.684 37.1644 116.382 42.5025 122.931 40.0261C123.701 39.6408 124.747 37.8248 125.573 38.4301C126.013 39.6408 122.986 40.5764 123.316 42.6676C123.536 42.9427 123.756 43.2729 123.977 43.5481C125.848 44.4286 131.736 42.9427 131.956 43.9333C128.324 46.905 123.536 41.2367 118.198 50.7572ZM131.736 40.9066C133.002 42.5025 126.343 42.1723 125.242 41.9522C126.838 40.3012 130.195 39.8059 131.736 40.9066ZM139.716 34.9081C141.477 37.6597 145.879 38.6503 141.587 42.3924V42.3374C140.431 43.3279 139 42.9978 137.68 43.1629C137.404 50.1519 130.911 46.1346 134.928 41.2367C135.258 40.5213 136.524 39.861 136.029 39.0355C135.863 38.7603 135.533 38.5952 135.203 38.7603C132.452 40.3012 133.331 37.4495 133.331 36.7091C133.331 35.9687 133.277 34.8531 134.323 34.3578L134.268 34.3028C136.084 32.5968 138.615 32.8169 139.716 34.9081ZM115.062 28.1942C115.447 27.3688 115.777 27.1486 117.153 26.7084C117.648 27.3688 116.823 28.7446 118.033 28.9097C119.299 29.0197 118.804 27.809 118.914 27.2037C120.4 19.6643 125.793 26.2681 127.113 24.8373C127.664 23.8467 126.178 23.4065 125.683 22.7461C122.656 21.1502 129.865 19.059 131.351 22.2508C132.011 23.6817 130.69 24.9474 130.415 26.3782C130.58 27.0936 130.25 28.5244 131.296 28.5795C131.846 28.5795 132.066 28.1392 132.011 27.699C131.956 26.4332 132.286 24.6172 133.552 24.0669C137.349 21.2052 142.797 25.1675 140.816 29.6251C139.881 30.7807 141.477 33.8075 139.11 32.2666C135.533 30.2304 131.736 33.0921 131.461 36.9443C131.296 38.0999 130.911 38.9254 129.59 38.8704C127.058 39.1455 124.417 34.743 127.664 33.9726C128.104 33.1471 129.865 32.7068 128.985 31.6612C128.104 30.5606 127.444 32.2116 126.728 32.5968C123.977 34.633 122.326 31.7713 119.739 31.0009C117.923 30.4505 113.3 31.5512 115.062 28.1942Z" fill="#2E313D"/>
<path d="M53.8128 25.1675C54.033 25.1125 54.3081 25.0575 54.5833 25.0024C54.5283 25.0024 53.8128 25.2226 53.7578 25.2226L53.8128 25.1675Z" fill="#1E2517"/>
<path d="M76.1548 46.5198C74.779 47.2352 73.4033 47.0151 72.0825 46.6849C71.147 46.0796 70.0463 47.2352 70.5966 48.1708C72.1375 49.5466 74.8891 49.1613 76.485 48.7761C76.3199 48.0607 76.2099 47.2903 76.1548 46.5198Z" fill="#2E313D"/>
<path d="M79.1268 43.8232C78.5764 45.2541 77.3657 46.0245 76.155 46.6299C75.0544 46.795 74.9994 48.3909 75.99 48.7211C78.0261 48.7761 79.8972 46.6849 80.8327 45.3091C80.2274 44.8688 79.6771 44.3185 79.1268 43.8232Z" fill="#2E313D"/>
<path d="M52.3809 80.2542C54.0868 89.2244 68.8904 84.5467 64.1576 90.2149L54.6922 89.5546L52.3809 80.2542Z" fill="#D5979F"/>
<path d="M23.8205 81.9052C23.8205 81.9052 22.2797 84.0514 18.5375 84.2165C14.7954 84.4366 20.1885 87.1332 20.1885 87.1332L25.5816 83.5011L23.8205 81.9052Z" fill="#D5979F"/>
<path d="M23.3242 74.4758C21.3981 72.0544 15.2896 74.7509 18.9767 71.0088L21.9484 72.1645L23.3242 74.4758Z" fill="#D5979F"/>
</svg>
